<?xml version="1.0" encoding="UTF-8" standalone="no"?>
<!-- Created with Inkscape (http://www.inkscape.org/) -->

<svg
   xmlns:dc="http://purl.org/dc/elements/1.1/"
   xmlns:cc="http://creativecommons.org/ns#"
   xmlns:rdf="http://www.w3.org/1999/02/22-rdf-syntax-ns#"
   xmlns:svg="http://www.w3.org/2000/svg"
   xmlns="http://www.w3.org/2000/svg"
   version="1.1"
   width="100%"
   height="100%"
   viewBox="0 0 633.5649 99.639987"
   id="svg2">
  <title
     id="title4">HTML5 Logo</title>
  <metadata
     id="metadata30">
    <rdf:RDF>
      <cc:Work
         rdf:about="">
        <dc:format>image/svg+xml</dc:format>
        <dc:type
           rdf:resource="http://purl.org/dc/dcmitype/StillImage" />
        <dc:title>HTML5 Logo</dc:title>
      </cc:Work>
    </rdf:RDF>
  </metadata>
  <defs
     id="defs28" />
  <path
     d="M 0,7.5762263 H 23.077 V 30.376226 h 21.11 V 7.5762263 H 67.265 V 76.620226 H 44.188 v -23.12 h -21.11 v 23.12 H 0.001 V 7.5762263 z"
     id="path14"
     style="fill:#ffffff;fill-opacity:1" />
  <path
     d="M 97.611997,30.472226 H 77.296 V 7.5762263 h 63.72 V 30.472226 h -20.325 v 46.148 H 97.612997 v -46.148 z"
     id="path16"
     style="fill:#ffffff;fill-opacity:1" />
  <path
     d="m 151.129,7.5762263 h 24.063 L 189.994,31.836226 204.781,7.5762263 h 24.072 V 76.620226 h -22.982 v -34.222 l -15.877,24.549 h -0.397 l -15.888,-24.549 v 34.222 h -22.58 V 7.5762263 z"
     id="path18"
     style="fill:#ffffff;fill-opacity:1" />
  <path
     d="m 240.338,7.5762263 h 23.084 V 53.798226 h 32.453 v 22.822 H 240.338 V 7.5762263 z"
     id="path20"
     style="fill:#ffffff;fill-opacity:1" />
  <g
     transform="translate(-17.574453,-5.9483025)"
     id="g3007">
    <polygon
       points="107.644,470.877 74.633,100.62 437.367,100.62 404.321,470.819 255.778,512 "
       transform="matrix(0.20103624,0,0,0.20103624,305.00264,-14.279964)"
       id="polygon6"
       style="fill:#e44d26" />
    <polygon
       points="404.27,130.894 256,130.894 256,480.523 376.03,447.246 "
       transform="matrix(0.20103624,0,0,0.20103624,305.00264,-14.279964)"
       id="polygon8"
       style="fill:#f16529" />
    <polygon
       points="256,268.217 195.91,268.217 191.76,221.716 256,221.716 256,176.305 255.843,176.305 142.132,176.305 143.219,188.488 154.38,313.627 256,313.627 "
       transform="matrix(0.20103624,0,0,0.20103624,305.00264,-14.279964)"
       id="polygon10"
       style="fill:#ebebeb" />
    <polygon
       points="255.801,386.206 205.227,372.55 201.994,336.333 177.419,336.333 156.409,336.333 162.771,407.634 255.791,433.457 256,433.399 256,386.153 "
       transform="matrix(0.20103624,0,0,0.20103624,305.00264,-14.279964)"
       id="polygon12"
       style="fill:#ebebeb" />
    <polygon
       points="349.162,268.217 255.843,268.217 255.843,313.627 311.761,313.627 306.49,372.521 255.843,386.191 255.843,433.435 348.937,407.634 349.62,399.962 360.291,280.411 361.399,268.217 "
       transform="matrix(0.20103624,0,0,0.20103624,305.00264,-14.279964)"
       id="polygon22"
       style="fill:#ffffff" />
    <polygon
       points="255.843,176.305 255.843,204.509 255.843,221.605 255.843,221.716 365.385,221.716 365.385,221.716 365.531,221.716 366.442,211.509 368.511,188.488 369.597,176.305 "
       transform="matrix(0.20103624,0,0,0.20103624,305.00264,-14.279964)"
       id="polygon24"
       style="fill:#ffffff" />
  </g>
  <text
     x="380.42499"
     y="76.198463"
     id="text3015"
     xml:space="preserve"
     style="font-size:97.5777359px;font-style:normal;font-variant:normal;font-weight:normal;font-stretch:normal;line-height:125%;letter-spacing:0px;word-spacing:0px;fill:#ffffff;fill-opacity:1;stroke:none;font-family:Clockopia;-inkscape-font-specification:Clockopia"><tspan
       x="380.42499"
       y="76.198463"
       id="tspan3017"
       style="font-size:97.5777359px;font-style:normal;font-variant:normal;font-weight:normal;font-stretch:normal;fill:#ffffff;fill-opacity:1;font-family:Droid Serif;-inkscape-font-specification:Droid Serif">Pong!</tspan></text>
</svg>
